<?xml version="1.0" encoding="UTF-8"?>
<svg version="1.1" xmlns="http://www.w3.org/2000/svg" width="552" height="188">
<path d="M0 0 C40.26 0 80.52 0 122 0 C122 27.39 122 54.78 122 83 C122.66 82.67 123.32 82.34 124 82 C127 81.8125 127 81.8125 130 82 C132 84 132 84 132.25 87 C132 90 132 90 130 92 C124.66666667 92.33333333 124.66666667 92.33333333 122 91 C122 101.23 122 111.46 122 122 C81.74 122 41.48 122 0 122 C0 81.74 0 41.48 0 0 Z " fill="#FE0000" transform="translate(286,35)"/>
<path d="M0 0 C29.89838337 0 29.89838337 0 36.3125 4.69140625 C39.63551297 8.37595073 41.46651323 11.07278532 41.6875 16.125 C41.24625646 22.10936545 38.39049974 26.04855023 34 30 C34.9075 30.53625 35.815 31.0725 36.75 31.625 C40.15840994 33.93496503 42.13430586 36.26861172 44 40 C44.69489044 45.38540095 44.09915989 49.33257504 41.47265625 54.10546875 C37.79402035 58.83793138 32.7177543 61.57056143 27 63 C18.09 63 9.18 63 0 63 C0 42.21 0 21.42 0 0 Z " fill="#FFF6F6" transform="translate(353,63)"/>
<path d="M0 0 C5.92761771 3.47737072 10.62909147 8.93639544 12.6875 15.5 C13.53992683 23.24122504 13.35760017 30.06904239 8.6875 36.5 C4.41179191 41.72586544 -0.49101374 44.99081139 -7.21484375 45.88671875 C-14.05247345 46.13677078 -18.52871109 45.14164487 -24.3125 41.5 C-24.9725 40.84 -25.6325 40.18 -26.3125 39.5 C-26.6425 46.43 -26.9725 53.36 -27.3125 60.5 C-29.6225 60.5 -31.9325 60.5 -34.3125 60.5 C-34.3125 40.37 -34.3125 20.24 -34.3125 -0.5 C-32.0025 -0.5 -29.6925 -0.5 -27.3125 -0.5 C-26.9825 1.15 -26.6525 2.8 -26.3125 4.5 C-25.590625 3.88125 -24.86875 3.2625 -24.125 2.625 C-17.26799577 -2.55584764 -7.9430669 -3.50611938 0 0 Z M-23.625 9.8125 C-27.16254811 14.34321001 -28.56801951 18.17116591 -28.1875 23.9375 C-27.42330844 29.09579303 -25.92114228 33.32171749 -21.7734375 36.78515625 C-17.63651347 39.42032019 -13.241494 40.88566556 -8.3125 40.5 C-2.42367177 38.74425677 1.32341107 35.5461334 4.6875 30.5 C6.80071216 25.3130247 7.2037275 20.85588274 5.6875 15.5 C2.93015454 10.55579435 0.03481597 6.49885786 -5.25 4.25 C-12.69197217 2.4274762 -18.48210391 4.14277065 -23.625 9.8125 Z " fill="#C7C7C7" transform="translate(459.3125,81.5)"/>
<path d="M0 0 C14.85 0 29.7 0 45 0 C45 20.46 45 40.92 45 62 C42.69 62 40.38 62 38 62 C38 43.19 38 24.38 38 5 C27.77 5 17.54 5 7 5 C7 23.81 7 42.62 7 62 C4.69 62 2.38 62 0 62 C0 41.54 0 21.08 0 0 Z " fill="#C6C6C6" transform="translate(44,64)"/>
<path d="M0 0 C16.5 0 33 0 50 0 C50 2.31 50 4.62 50 7 C43.07 7 36.14 7 29 7 C29 25.48 29 43.96 29 63 C26.36 63 23.72 63 21 63 C21 44.52 21 26.04 21 7 C14.07 7 7.14 7 0 7 C0 4.69 0 2.38 0 0 Z " fill="#FFF6F6" transform="translate(294,63)"/>
<path d="M0 0 C2.64 0 5.28 0 8 0 C12.62 10.56 17.24 21.12 22 32 C24.04225479 28.93661781 25.35420611 26.00676696 26.78515625 22.6171875 C27.17688271 21.69487839 27.17688271 21.69487839 27.57652283 20.75393677 C28.40808662 18.79550692 29.23567457 16.83543458 30.0625 14.875 C30.89312147 12.90752389 31.72464449 10.94045547 32.55918884 8.97463989 C33.3141149 7.19620339 34.06546634 5.41625077 34.81665039 3.63623047 C36 1 36 1 37 0 C39.33297433 -0.04092937 41.66705225 -0.04241723 44 0 C43.3191457 4.82614311 41.4284403 8.9387889 39.46484375 13.3515625 C39.10789932 14.16507172 38.7509549 14.97858093 38.38319397 15.81674194 C37.23930915 18.42158325 36.08874477 21.02340425 34.9375 23.625 C33.44441164 27.01205363 31.95415577 30.4003469 30.46484375 33.7890625 C30.09749115 34.62383118 29.73013855 35.45859985 29.35165405 36.31866455 C25.46671746 45.16996342 21.72322354 54.07971099 18 63 C15.36 63 12.72 63 10 63 C10.79124124 60.93733676 11.58301091 58.87487621 12.375 56.8125 C12.81585938 55.66394531 13.25671875 54.51539063 13.7109375 53.33203125 C15 50 15 50 16.2265625 47.51171875 C18.18471099 41.15268096 14.97291561 34.99851483 12.40234375 29.2578125 C12.04862198 28.44883514 11.69490021 27.63985779 11.33045959 26.80636597 C10.20754086 24.24227547 9.07299732 21.68354157 7.9375 19.125 C6.80083234 16.54404215 5.66657049 13.96204712 4.53382874 11.37936401 C3.82995812 9.77666859 3.12335155 8.17517151 2.4138031 6.57498169 C0 1.10880527 0 1.10880527 0 0 Z " fill="#C6C6C6" transform="translate(96,80)"/>
<path d="M0 0 C2.31 0 4.62 0 7 0 C21 27.68020305 21 27.68020305 21 32 C21.66 32 22.32 32 23 32 C23.10884521 31.30688721 23.21769043 30.61377441 23.32983398 29.8996582 C24.09946403 26.56964144 25.31939994 23.72217486 26.72265625 20.60546875 C27.26083984 19.40341797 27.79902344 18.20136719 28.35351562 16.96289062 C28.92306568 15.70437666 29.49272855 14.44591375 30.0625 13.1875 C30.63653896 11.90971681 31.21011161 10.63172403 31.78320312 9.35351562 C33.1842287 6.23358473 34.58997798 3.11587282 36 0 C38.31 0 40.62 0 43 0 C42.41799207 3.33727327 41.6027497 6.23399408 40.22167969 9.32446289 C39.67540924 10.55713646 39.67540924 10.55713646 39.11810303 11.81471252 C38.72334778 12.69183395 38.32859253 13.56895538 37.921875 14.47265625 C37.51342346 15.39155136 37.10497192 16.31044647 36.68414307 17.25718689 C35.37753372 20.19444482 34.0640841 23.12857955 32.75 26.0625 C31.03433212 29.90660639 29.32158227 33.75200746 27.609375 37.59765625 C26.99539856 38.97372543 26.99539856 38.97372543 26.36901855 40.37759399 C23.76400696 46.23062216 21.24400336 52.10622244 18.84863281 58.04858398 C18 60 18 60 17 61 C14.66702567 61.04092937 12.33294775 61.04241723 10 61 C11.70982083 55.52080143 13.64144106 50.41727452 16.328125 45.3359375 C17.93491419 39.74954253 15.56643055 34.48459567 13.1640625 29.47265625 C12.88404388 28.88004501 12.60402527 28.28743378 12.31552124 27.67686462 C11.42746784 25.80107522 10.52701248 23.93161117 9.625 22.0625 C2.47362645 7.10945156 2.47362645 7.10945156 0 0 Z " fill="#C6C6C6" transform="translate(477,81)"/>
<path d="M0 0 C2.7573633 1.816822 4.75152597 3.65018204 6.84375 6.21484375 C6.84375 6.87484375 6.84375 7.53484375 6.84375 8.21484375 C3.84375 10.21484375 3.84375 10.21484375 1.96875 10.08984375 C-0.15625 9.21484375 -0.15625 9.21484375 -2.53125 7.27734375 C-6.95087617 3.80478033 -10.62769995 3.00000784 -16.15625 3.33984375 C-22.05492836 4.10153495 -25.49183955 6.37049703 -29.46875 10.77734375 C-32.82060355 15.61890998 -32.63610895 20.52762652 -32.15625 26.21484375 C-30.0860251 32.31050595 -26.10159898 35.74216926 -20.40625 38.58984375 C-14.65229651 39.69637327 -8.68197746 39.56623893 -3.65625 36.27734375 C-1.17457349 34.29680228 -1.17457349 34.29680228 0.84375 32.21484375 C3.10649788 32.56839811 4.79463852 33.19028801 6.84375 34.21484375 C5.87027014 37.71937125 4.98382823 39.10341788 2.09375 41.40234375 C-6.26131021 46.06189656 -15.89502048 46.97453571 -25.14453125 44.375 C-32.01760676 41.27742272 -36.12702424 36.55318848 -39.2890625 29.79296875 C-41.28365451 23.8631006 -40.93097398 17.35589735 -38.71875 11.52734375 C-35.67275627 5.50039531 -30.51522605 0.62167274 -24.29296875 -1.984375 C-16.2115234 -4.04750862 -7.462479 -3.91223246 0 0 Z " fill="#C7C7C7" transform="translate(274.15625,81.78515625)"/>
<path d="M0 0 C2.31 0 4.62 0 7 0 C7 5.94 7 11.88 7 18 C9.330625 17.9175 11.66125 17.835 14.0625 17.75 C20.16119628 17.67805827 24.28097477 17.92447821 29 22 C32.35936808 26.65976863 32.88897381 31.42643385 32 37 C29.35348016 42.49661813 27.7689877 43.11550615 22 46 C14.74 46 7.48 46 0 46 C0 30.82 0 15.64 0 0 Z M7 23 C7 28.94 7 34.88 7 41 C15.43972786 41.42129758 15.43972786 41.42129758 23 38 C25.42113313 34.36830031 25.18624932 32.99565739 24.54296875 28.87109375 C24.09859703 26.81246112 24.09859703 26.81246112 22.1875 25.0625 C16.88821759 22.48856283 13.20456929 23 7 23 Z " fill="#C7C7C7" transform="translate(195,80)"/>
<path d="M0 0 C0.99 0 1.98 0 3 0 C5.02951044 4.29946955 7.05569723 8.60048546 9.07910156 12.90283203 C9.76476137 14.35961904 10.45125532 15.81601379 11.13867188 17.27197266 C15.62237733 26.77034868 19.93717785 36.31320528 24 46 C21.36 46 18.72 46 16 46 C11.38 35.77 6.76 25.54 2 15 C-1.6031668 22.2063336 -5.11506118 29.31510161 -8.3125 36.6875 C-11.87070201 44.87070201 -11.87070201 44.87070201 -13 46 C-15.33297433 46.04092937 -17.66705225 46.04241723 -20 46 C-18.36815904 40.68335688 -16.16265938 35.717043 -13.8671875 30.6640625 C-13.47048859 29.78471039 -13.07378967 28.90535828 -12.66506958 27.99935913 C-11.40445371 25.20665836 -10.13978988 22.4158125 -8.875 19.625 C-8.01665873 17.72538165 -7.15858289 15.82564334 -6.30078125 13.92578125 C-4.20359196 9.28245943 -2.10277172 4.64079627 0 0 Z " fill="#C6C6C6" transform="translate(164,80)"/>
<path d="M0 0 C18.52776978 -0.4342446 18.52776978 -0.4342446 25 3 C27.47035712 5.47035712 27.35042281 6.3960007 27.4375 9.8125 C27.37877965 13.87594808 27.20714563 14.73974011 24.5625 18.0625 C23.716875 18.701875 22.87125 19.34125 22 20 C21.67 20.33 21.34 20.66 21 21 C14.06609716 22.45128199 7.05426804 22.06718351 0 22 C0 14.74 0 7.48 0 0 Z " fill="#FF0101" transform="translate(361,97)"/>
<path d="M0 0 C18.03711565 -0.34356411 18.03711565 -0.34356411 22.64453125 3.30078125 C24.80753524 6.01232804 24.53123896 8.41596386 24.421875 11.7734375 C23.73997976 15.37232907 21.88374159 16.90273339 19 19 C15.20557659 20.39655862 11.23481558 20.11108483 7.25 20.0625 C4.8575 20.041875 2.465 20.02125 0 20 C0 13.4 0 6.8 0 0 Z " fill="#FF0000" transform="translate(361,70)"/>
<path d="M0 0 C2 2 2 2 2.25 5 C2 8 2 8 0 10 C-5.33333333 10.33333333 -5.33333333 10.33333333 -8 9 C-8 6.36 -8 3.72 -8 1 C-5.23749964 -0.38125018 -3.05268901 -0.19079306 0 0 Z " fill="#C7C7C7" transform="translate(416,117)"/>
</svg>
