<?xml version="1.0" encoding="UTF-8" standalone="no"?>
<svg
   version="1.1"
   width="133"
   height="135"
   id="svg13"
   sodipodi:docname="Копия (1) pulseTvLogo.svg"
   inkscape:version="1.4.2 (f4327f4, 2025-05-13)"
   xmlns:inkscape="http://www.inkscape.org/namespaces/inkscape"
   xmlns:sodipodi="http://sodipodi.sourceforge.net/DTD/sodipodi-0.dtd"
   xmlns="http://www.w3.org/2000/svg"
   xmlns:svg="http://www.w3.org/2000/svg">
  <defs
     id="defs13" />
  <sodipodi:namedview
     id="namedview13"
     pagecolor="#ffffff"
     bordercolor="#000000"
     borderopacity="0.25"
     inkscape:showpageshadow="2"
     inkscape:pageopacity="0.0"
     inkscape:pagecheckerboard="0"
     inkscape:deskcolor="#d1d1d1"
     inkscape:zoom="2.2711962"
     inkscape:cx="285.97265"
     inkscape:cy="48.212479"
     inkscape:window-width="1920"
     inkscape:window-height="991"
     inkscape:window-x="-9"
     inkscape:window-y="-9"
     inkscape:window-maximized="1"
     inkscape:current-layer="svg13" />
  <path
     d="M 5.0907625,5.0598305 H 127.09076 V 127.05983 H 5.0907625 Z"
     fill="#fe0000"
     id="path1"
     sodipodi:nodetypes="ccccc" />
  <path
     d="m 72.971353,32.619534 c 29.898387,0 29.898387,0 36.312497,4.691406 3.32302,3.684544 5.15402,6.381379 5.375,11.433594 -0.44124,5.984365 -3.297,9.92355 -7.6875,13.875 0.9075,0.53625 1.815,1.0725 2.75,1.625 3.40841,2.309965 5.38431,4.643611 7.25,8.375 0.69489,5.3854 0.0992,9.332575 -2.52734,14.105468 -3.67864,4.732463 -8.7549,7.465093 -14.472657,8.894532 -8.91,0 -17.82,0 -27,0 0,-20.79 0,-41.58 0,-63 z"
     fill="#fff6f6"
     id="path2" />
  <path
     d="m 13.971353,32.619534 c 16.5,0 33,0 50,0 0,2.31 0,4.62 0,7 -6.93,0 -13.86,0 -21,0 0,18.48 0,36.96 0,56 -2.64,0 -5.28,0 -8,0 0,-18.48 0,-36.96 0,-56 -6.93,0 -13.86,0 -21,0 0,-2.31 0,-4.62 0,-7 z"
     fill="#fff6f6"
     id="path5" />
  <path
     d="m 80.971353,66.619534 c 18.527769,-0.434245 18.527769,-0.434245 24.999997,3 2.47036,2.470357 2.35043,3.396 2.4375,6.8125 -0.0587,4.063448 -0.23035,4.92724 -2.875,8.25 -0.84562,0.639375 -1.69125,1.27875 -2.5625,1.9375 -0.33,0.33 -0.66,0.66 -1,1 -6.9339,1.451282 -13.945729,1.067183 -20.999997,1 0,-7.26 0,-14.52 0,-22 z"
     fill="#ff0101"
     id="path11" />
  <path
     d="m 80.971353,39.619534 c 18.037115,-0.343565 18.037115,-0.343565 22.644527,3.300781 2.16301,2.711547 1.88671,5.115182 1.77735,8.472656 -0.6819,3.598892 -2.53814,5.129296 -5.421877,7.226563 -3.794424,1.396558 -7.765185,1.111084 -11.75,1.0625 -2.3925,-0.02063 -4.785,-0.04125 -7.25,-0.0625 0,-6.6 0,-13.2 0,-20 z"
     fill="#ff0000"
     id="path12" />
  <path
     style="fill:#232712;fill-opacity:1;stroke-width:0.880593"
     d=""
     id="path27" />
</svg>
